<?xml version="1.0" standalone="no"?>
<!DOCTYPE svg PUBLIC "-//W3C//DTD SVG 20010904//EN"
 "http://www.w3.org/TR/2001/REC-SVG-20010904/DTD/svg10.dtd">
<svg version="1.0" xmlns="http://www.w3.org/2000/svg"
 width="500.000000pt" height="500.000000pt" viewBox="0 0 500.000000 500.000000"
 preserveAspectRatio="xMidYMid meet">

<g transform="translate(0.000000,500.000000) scale(0.100000,-0.100000)"
fill="#000000" stroke="none">
<path d="M2260 4384 c-150 -19 -354 -78 -510 -148 -554 -249 -943 -749 -1056
-1357 -21 -116 -29 -392 -15 -514 64 -546 352 -1019 808 -1326 190 -128 470
-240 702 -278 94 -16 168 -21 311 -21 230 0 374 22 569 86 638 209 1101 736
1231 1399 40 206 38 500 -6 713 -42 203 -154 470 -269 642 -273 405 -661 667
-1155 781 -81 18 -130 22 -335 24 -132 2 -256 1 -275 -1z m347 -106 c29 -27
31 -80 3 -108 -13 -13 -33 -20 -60 -20 -51 0 -80 27 -80 75 0 68 85 102 137
53z m253 -22 c31 -14 39 -60 15 -86 -11 -12 -14 -26 -10 -39 10 -31 -23 -27
-35 4 -11 30 -38 33 -48 5 -5 -13 -11 -16 -21 -11 -11 7 -11 20 -1 79 l13 71
31 -6 c17 -3 42 -11 56 -17z m-685 -58 c20 -87 9 -101 -44 -59 -55 43 -64 46
-58 25 20 -65 20 -76 1 -72 -13 2 -22 22 -35 71 -21 84 -10 94 53 48 23 -17
43 -29 46 -27 2 2 -1 20 -6 40 -10 33 -6 42 20 45 3 1 14 -31 23 -71z m909 1
c59 -23 76 -49 30 -46 -24 2 -29 -4 -44 -47 -16 -49 -32 -66 -44 -48 -3 5 3
35 14 66 l19 56 -24 6 c-15 4 -22 11 -18 20 6 17 1 18 67 -7z m-1185 -93 c34
-34 49 -56 42 -61 -7 -4 -18 -1 -26 5 -22 18 -83 -5 -87 -32 -2 -12 -9 -23
-15 -26 -10 -3 -13 18 -13 82 0 83 1 86 23 86 14 0 42 -20 76 -54z m1385 8
c13 -5 10 -17 -19 -75 -25 -49 -39 -67 -50 -63 -8 4 -15 8 -15 10 0 5 64 134
66 134 1 0 9 -3 18 -6z m-1620 -115 c32 -49 37 -62 25 -69 -10 -7 -19 0 -34
23 l-20 32 -3 -30 c-5 -54 -8 -57 -43 -40 -40 21 -46 13 -19 -24 19 -28 20
-32 5 -37 -19 -8 -14 -13 -60 60 -46 72 -35 86 37 50 l48 -24 0 60 c0 78 14
77 64 -1z m1831 -5 c40 -26 30 -41 -35 -60 -33 -9 -60 -20 -60 -23 0 -4 13
-15 30 -24 18 -11 27 -23 24 -32 -5 -13 -10 -12 -35 2 -55 33 -85 61 -74 71 6
5 37 17 69 27 l60 17 -32 20 c-18 11 -32 23 -32 27 0 18 15 20 37 6 13 -8 34
-22 48 -31z m-2076 -170 c29 -37 26 -70 -8 -105 -53 -53 -131 -24 -131 48 0
75 95 113 139 57z m2381 -101 c34 -43 36 -73 3 -88 -12 -5 -23 -19 -25 -30 -6
-38 -49 -31 -93 15 l-40 42 54 49 c30 27 58 49 62 49 4 0 22 -17 39 -37z
m-2602 -89 c12 -8 22 -24 22 -35 0 -14 7 -19 26 -19 35 0 26 -24 -12 -28 -38
-5 -50 -17 -34 -36 7 -9 10 -23 6 -32 -5 -12 -17 -6 -66 31 -33 25 -60 50 -60
54 0 14 68 81 82 81 7 0 24 -7 36 -16z m2752 -109 c0 -8 -20 -26 -45 -41 -50
-29 -52 -34 -29 -70 11 -17 14 -28 7 -35 -7 -7 -20 6 -41 38 l-31 47 62 42
c62 42 77 45 77 19z m-1500 -49 c0 -26 -16 -31 -120 -38 l-35 -3 -5 -725 -5
-725 -25 -48 c-29 -58 -86 -112 -149 -141 -40 -18 -68 -21 -223 -24 l-178 -4
0 25 c0 25 2 25 93 29 105 3 143 21 188 86 l24 36 3 748 2 748 -44 0 c-78 0
-106 10 -106 36 l0 24 290 0 290 0 0 -24z m535 3 c185 -43 313 -167 360 -345
20 -76 19 -259 0 -343 -33 -137 -134 -264 -249 -312 -31 -12 -56 -26 -56 -31
0 -4 74 -145 165 -312 l165 -304 85 -7 c81 -6 85 -8 85 -31 l0 -24 -310 0
-310 0 0 24 c0 23 4 25 76 31 49 5 74 11 71 19 -3 6 -72 137 -155 291 l-150
280 -186 3 -186 2 0 25 0 25 158 0 c178 0 266 15 343 56 141 77 209 244 196
484 -16 304 -162 440 -474 440 -72 0 -73 0 -73 26 l0 27 198 -6 c108 -3 220
-11 247 -18z m1104 -196 c7 -14 -1 -30 -41 -75 -56 -65 -73 -73 -64 -28 8 40
-9 80 -33 80 -31 0 -34 28 -3 33 73 11 131 7 141 -10z m-3085 -33 c25 -10 46
-25 46 -33 0 -7 -25 -21 -57 -32 l-58 -18 38 -16 c23 -10 36 -22 34 -31 -3
-19 -21 -16 -91 15 -67 30 -66 46 4 64 28 7 50 17 50 21 0 5 -15 14 -34 21
-23 8 -32 17 -29 26 7 17 29 13 97 -17z m3169 -184 c3 -8 -7 -31 -23 -53 -16
-21 -30 -42 -30 -47 0 -8 29 -3 64 10 11 4 16 0 16 -13 0 -16 -13 -24 -66 -38
-89 -24 -99 -13 -49 56 30 40 34 50 19 46 -58 -18 -71 -18 -77 -3 -5 11 8 19
51 31 31 9 62 18 67 20 18 7 23 5 28 -9z m-3213 -86 c0 -13 -7 -20 -19 -20
-14 0 -21 -10 -26 -37 -4 -24 -3 -39 4 -41 12 -4 15 -42 4 -42 -19 0 -123 93
-123 110 0 14 15 21 73 33 39 8 75 15 80 16 4 0 7 -8 7 -19z m3255 -205 c18
-17 25 -35 25 -63 0 -42 -6 -53 -24 -46 -8 3 -11 17 -8 34 5 36 -12 60 -43 60
-35 0 -48 -23 -40 -70 7 -43 -6 -55 -25 -21 -45 84 50 172 115 106z m-3324
-61 c23 -21 25 -71 2 -96 -12 -14 -31 -18 -80 -18 -56 0 -64 2 -61 18 3 14 12
16 51 14 51 -4 77 9 77 38 0 22 -19 30 -76 30 -38 0 -44 3 -44 21 0 20 4 21
56 16 32 -3 64 -13 75 -23z m3312 -185 c25 -11 47 -47 47 -75 0 -29 -31 -74
-55 -80 -39 -10 -73 4 -90 36 -22 43 -19 68 14 101 32 32 47 35 84 18z m-3304
-83 c14 -17 11 -81 -4 -81 -5 0 -11 15 -13 33 -3 32 -4 33 -45 30 -37 -3 -42
-6 -45 -30 -6 -49 -32 -34 -32 17 l0 45 64 0 c43 0 67 -5 75 -14z m115 -312
c34 -34 9 -78 -40 -72 -34 4 -48 37 -28 67 18 25 46 27 68 5z m3085 2 c7 -8
11 -27 9 -43 -3 -25 -7 -28 -37 -28 -43 0 -60 23 -43 59 13 29 52 35 71 12z
m-1673 -311 c70 -6 74 -8 74 -31 l0 -24 -127 0 -127 0 36 38 c20 20 42 48 49
62 l14 25 3 -31 c3 -32 3 -32 78 -39z m-1238 -30 c-2 -9 -31 -31 -65 -50 -54
-30 -62 -32 -68 -17 -3 9 -3 18 2 19 4 2 31 17 58 33 56 33 78 38 73 15z
m2748 -89 l-26 -45 -63 35 c-75 43 -73 42 -60 55 7 7 26 3 63 -16 28 -14 53
-25 54 -23 1 2 10 16 20 32 12 19 21 25 28 18 7 -7 3 -25 -16 -56z m-2625
-103 c16 -30 4 -41 -20 -19 -19 17 -22 17 -66 -15 -36 -26 -48 -30 -58 -20 -9
10 -7 16 15 32 69 51 73 56 59 72 -7 9 -9 22 -5 28 7 12 50 -32 75 -78z m2443
-28 c90 -23 90 -23 77 -39 -7 -8 -20 -12 -30 -9 -22 5 -55 -40 -47 -65 5 -16
-9 -51 -17 -42 -2 3 -20 36 -40 74 -28 53 -34 73 -26 83 14 16 9 16 83 -2z
m-162 -191 c40 -44 56 -81 33 -78 -5 1 -35 5 -65 8 l-55 7 33 -34 c28 -29 31
-36 19 -46 -12 -9 -24 -1 -65 46 -28 31 -48 61 -45 66 3 5 32 6 65 2 l61 -7
-27 34 c-24 32 -25 48 -5 48 5 0 28 -21 51 -46z m-2022 -54 c17 -31 11 -59
-15 -76 -23 -15 -27 -15 -61 5 -33 20 -37 20 -48 5 -11 -14 -14 -14 -24 -1
-10 12 -4 25 34 71 l46 56 29 -21 c16 -11 34 -29 39 -39z m1814 -110 c46 -45
4 -130 -64 -132 -37 -1 -80 38 -80 73 0 73 92 110 144 59z m-1626 -17 c41 -31
45 -77 7 -95 -18 -8 -25 -19 -25 -39 0 -40 -26 -27 -34 17 -7 35 -32 47 -42
20 -6 -16 -34 -10 -34 6 0 23 72 128 83 122 7 -4 27 -18 45 -31z m1380 -141
c22 -54 24 -65 12 -72 -12 -7 -20 2 -38 42 -34 78 -38 101 -17 96 10 -2 27
-28 43 -66z m-1155 39 c37 -14 57 -40 57 -74 0 -67 -78 -100 -134 -56 -42 33
-32 109 17 129 29 12 32 12 60 1z m977 -46 c0 -10 -10 -15 -30 -15 -20 0 -30
-5 -30 -15 0 -10 10 -15 31 -15 94 0 90 -81 -5 -97 -29 -4 -36 -2 -36 10 0 10
11 17 32 19 22 2 34 9 36 21 3 14 -4 17 -35 17 -62 0 -86 43 -41 74 29 21 78
21 78 1z m-677 -32 c21 -13 2 -24 -35 -21 -34 2 -43 -1 -46 -14 -2 -12 6 -19
33 -24 47 -8 40 -30 -9 -26 -31 2 -36 0 -36 -18 0 -19 -25 -38 -36 -28 -2 3 1
38 7 77 l12 72 51 -6 c28 -4 54 -9 59 -12z m457 -19 c0 -12 -6 -15 -21 -11
-27 7 -49 -1 -49 -19 0 -8 10 -14 26 -14 39 0 64 -18 64 -45 0 -30 -26 -45
-80 -45 -29 0 -40 4 -37 13 2 6 18 12 35 12 17 0 36 5 43 12 9 9 5 13 -17 18
-75 16 -92 39 -57 77 21 24 93 25 93 2z m-222 -11 c2 -9 -10 -13 -42 -13 -33
0 -46 -4 -46 -14 0 -9 12 -16 32 -18 46 -4 49 -28 4 -28 -29 0 -36 -4 -36 -20
0 -17 7 -20 40 -20 30 0 40 -4 40 -16 0 -14 -7 -15 -37 -10 -21 3 -46 6 -55 6
-16 0 -18 10 -18 75 l0 76 57 -3 c34 -2 58 -8 61 -15z"/>
<path d="M2508 4244 c-16 -34 0 -58 40 -62 26 -3 34 2 43 21 16 36 -3 67 -42
67 -22 0 -32 -6 -41 -26z"/>
<path d="M2798 4215 c-5 -22 -2 -25 23 -25 33 0 45 15 29 35 -20 24 -47 18
-52 -10z"/>
<path d="M1830 4097 c0 -28 6 -32 28 -19 9 7 8 13 -8 27 -20 18 -20 18 -20 -8z"/>
<path d="M1326 3804 c-21 -21 -20 -47 3 -68 41 -37 97 14 66 60 -18 28 -46 31
-69 8z"/>
<path d="M3752 3708 c-10 -12 -8 -19 8 -33 29 -26 47 -6 22 24 -15 20 -20 21
-30 9z"/>
<path d="M3702 3668 c-9 -12 -7 -19 13 -38 36 -34 55 -13 23 25 -20 23 -26 25
-36 13z"/>
<path d="M1131 3591 c-9 -17 -8 -22 11 -32 18 -10 24 -8 35 7 17 23 12 38 -15
42 -13 2 -25 -4 -31 -17z"/>
<path d="M4017 3263 c-11 -3 -16 -10 -13 -20 3 -8 6 -17 6 -20 0 -4 9 2 20 12
20 18 27 36 13 34 -5 -1 -16 -3 -26 -6z"/>
<path d="M840 2944 c0 -8 32 -33 43 -34 4 0 7 9 7 20 0 15 -7 20 -25 20 -14 0
-25 -3 -25 -6z"/>
<path d="M4136 2485 c-30 -30 -10 -75 33 -75 39 0 57 24 45 58 -11 32 -53 41
-78 17z"/>
<path d="M3712 1530 c15 -24 22 -25 37 -6 12 14 -4 26 -35 26 -12 0 -12 -4 -2
-20z"/>
<path d="M1493 1321 c-9 -14 -9 -21 0 -30 29 -29 73 3 47 34 -17 20 -33 19
-47 -4z"/>
<path d="M3281 1188 c-17 -45 39 -87 75 -58 17 15 18 52 2 68 -21 21 -68 15
-77 -10z"/>
<path d="M1700 1171 c-9 -18 -7 -23 15 -33 33 -15 56 3 39 30 -16 25 -41 26
-54 3z"/>
<path d="M1930 1060 c-24 -24 -25 -43 -4 -64 30 -31 84 -9 84 34 0 17 -34 50
-52 50 -5 0 -17 -9 -28 -20z"/>
</g>
</svg>
